<?xml version="1.0" standalone="no"?><!-- Generator: Gravit.io --><svg xmlns="http://www.w3.org/2000/svg" xmlns:xlink="http://www.w3.org/1999/xlink" style="isolation:isolate" viewBox="0 -0.381 128 128.381"><g style="isolation:isolate" id="Layer 0"><g id="null"><path d=" M 25.711 118.016 C 19.535 116.747 -4.491 92.552 13.528 49.998 C 14.205 48.306 14.797 46.614 15.559 45.007 C 16.774 42.501 18.189 40.096 19.789 37.816 L 21.734 35.447 C 22.951 34.231 24.386 33.256 25.964 32.571 L 26.98 32.232 L 27.656 32.063 C 28.502 31.725 34.17 29.525 34.678 29.187 C 34.847 29.018 39.585 6.853 46.522 5.33 C 48.975 4.822 56.082 16.243 55.405 16.243 C 57.943 18.527 78.247 21.742 78.416 19.542 C 77.232 19.289 89.414 6.345 102.019 3.976 L 102.865 3.976 C 103.119 4.061 103.373 4.399 103.542 4.23 C 105.234 2.623 116.57 20.896 110.648 36.801 C 110.225 37.901 111.325 35.87 110.648 36.801 C 110.648 37.224 112.679 39.677 113.44 41.877 C 115.401 46.641 116.212 51.8 115.809 56.935 L 115.809 57.02 L 116.063 59.473 L 116.317 62.265 C 116.948 70.344 117.315 78.442 117.416 86.545 C 117.351 88.867 117.153 91.183 116.824 93.482 C 116.218 96.785 115.194 99.997 113.779 103.042 C 111.305 108.214 107.619 112.713 103.034 116.155 C 100.073 118.439 96.859 120.385 93.559 121.908 C 81.286 127.094 67.88 129.018 54.644 127.491 C 46.397 126.545 38.348 124.319 30.787 120.893 C 29.784 120.386 28.796 119.85 27.826 119.285 C 27.064 118.862 26.472 118.185 25.711 118.016 Z " fill-rule="evenodd" fill="rgb(0,0,0)" fill-opacity="0.2"/><path d=" M 29.348 114.125 C 23.173 112.856 -0.769 88.745 17.166 46.107 L 19.196 41.115 C 20.407 38.606 21.821 36.201 23.426 33.924 C 24.019 33.078 24.695 32.317 25.457 31.64 C 26.674 30.424 28.109 29.449 29.687 28.764 L 30.617 28.425 L 31.294 28.172 C 32.14 27.918 37.808 25.634 38.316 25.295 C 38.485 25.126 43.307 2.961 50.16 1.523 C 52.698 0.931 59.72 12.352 59.043 12.352 C 61.581 14.636 81.885 17.85 82.054 15.735 C 80.869 15.313 93.052 2.453 105.742 0 L 106.588 0.085 C 106.757 0.085 107.011 0.423 107.18 0.254 C 108.872 -1.269 120.293 16.92 114.286 32.825 C 113.948 33.924 114.963 31.894 114.286 32.825 C 114.286 33.248 116.317 35.701 117.163 37.901 L 118.601 42.554 C 119.435 45.955 119.72 49.468 119.447 52.959 L 119.447 53.044 L 119.701 55.497 L 119.954 58.289 C 120.585 66.368 120.952 74.466 121.054 82.569 C 120.995 84.888 120.825 87.203 120.547 89.506 C 119.92 92.842 118.868 96.083 117.416 99.151 C 114.943 104.323 111.257 108.821 106.672 112.263 C 99.994 117.147 92.351 120.55 84.253 122.246 C 75.73 124.132 66.948 124.561 58.281 123.515 C 50.034 122.569 41.985 120.343 34.424 116.916 C 33.449 116.441 32.489 115.933 31.548 115.394 C 30.702 114.971 30.194 114.209 29.348 114.04 L 29.348 114.125 Z " fill-rule="evenodd" fill="rgb(255,255,255)" vector-effect="non-scaling-stroke" stroke-width="0.761" stroke="rgb(207,207,207)" stroke-linejoin="round" stroke-linecap="butt" stroke-miterlimit="1.41"/><path d=" M 19.789 93.313 C 19.789 93.313 12.513 74.363 18.097 61.504 C 18.097 61.504 23.342 36.462 33.071 33.078 C 46.776 28.51 43.223 27.833 43.73 25.126 C 43.73 25.126 46.014 15.397 48.806 9.644 C 48.806 9.644 51.006 5.245 52.867 10.067 C 54.813 14.805 55.743 19.373 59.127 20.304 C 59.127 20.304 78.754 24.365 83.154 23.096 C 83.154 23.096 94.659 11.167 99.143 7.952 C 103.627 4.822 105.319 6.853 107.603 11.421 C 109.887 15.989 111.241 31.556 107.603 35.278 C 107.603 35.278 114.286 46.107 113.102 56.089 C 113.102 56.089 115.471 79.862 114.202 87.899 C 107.434 130.537 27.487 126.138 19.789 93.313 Z " fill-rule="evenodd" fill="rgb(209,173,86)"/><path d=" M 18.858 93.482 C 17.958 90.996 17.223 88.452 16.658 85.868 C 15.325 80.161 14.841 74.289 15.22 68.441 C 15.531 66.002 16.156 63.613 17.081 61.335 L 17.081 61.25 L 17.335 60.235 L 17.674 58.966 C 19.011 53.664 20.794 48.485 23.003 43.484 C 24.081 41.206 25.355 39.027 26.81 36.97 C 27.318 36.293 27.91 35.532 28.587 34.94 C 29.706 33.826 31.027 32.936 32.479 32.317 L 33.325 31.979 L 33.917 31.809 L 36.116 30.963 L 37.639 30.371 L 38.823 29.948 L 39.839 29.525 L 40.515 29.187 L 41.954 28.341 C 42.142 28.192 42.312 28.021 42.461 27.833 C 42.577 27.713 42.664 27.569 42.715 27.41 L 42.715 26.226 L 42.63 25.464 L 42.715 24.788 L 43.053 23.688 C 44.368 18.79 46.008 13.986 47.96 9.306 L 48.045 9.052 C 48.291 8.56 48.604 8.104 48.975 7.699 C 49.225 7.459 49.511 7.259 49.821 7.106 C 50.186 6.917 50.595 6.829 51.006 6.853 L 51.429 6.937 C 52.19 7.191 52.698 7.783 53.121 8.46 L 53.205 8.714 L 53.459 9.137 L 53.628 9.644 L 54.051 10.575 L 54.474 11.929 L 55.151 13.621 L 55.49 14.551 L 55.913 15.482 L 56.251 16.158 C 56.251 16.412 56.42 16.581 56.505 16.835 C 57.012 17.681 57.689 18.527 58.535 19.119 C 65.388 20.524 72.305 21.597 79.262 22.334 L 80.954 22.334 L 82.646 22.25 L 84.338 20.558 C 84.761 19.965 85.269 19.542 85.776 19.035 C 89.632 15.243 93.581 11.548 97.62 7.952 C 98.52 7.245 99.482 6.622 100.496 6.091 C 101.206 5.731 101.985 5.529 102.781 5.499 C 103.244 5.497 103.703 5.583 104.134 5.753 C 105.149 6.176 105.826 6.937 106.503 7.783 L 106.841 8.291 L 107.264 8.968 L 107.857 9.983 C 108.648 11.441 109.218 13.009 109.549 14.636 C 110.29 17.514 110.716 20.464 110.818 23.434 C 110.865 26.473 110.581 29.508 109.972 32.486 C 109.718 33.501 109.295 34.517 108.703 35.363 L 109.126 36.039 C 109.126 36.293 109.295 36.462 109.379 36.716 C 111.03 39.866 112.334 43.184 113.271 46.614 C 114.049 49.651 114.335 52.793 114.117 55.92 L 114.117 56.089 L 114.286 58.204 L 114.455 60.742 C 115.069 68.003 115.436 75.283 115.555 82.569 C 115.515 84.265 115.402 85.959 115.217 87.645 L 115.048 88.829 C 114.424 91.807 113.459 94.703 112.171 97.459 C 109.948 102.144 106.607 106.212 102.442 109.302 C 99.904 111.333 96.943 113.025 93.982 114.378 C 82.86 119.093 70.698 120.814 58.704 119.37 C 51.223 118.526 43.917 116.528 37.047 113.448 C 35.48 112.683 33.955 111.836 32.479 110.91 C 28.001 108.157 24.233 104.39 21.481 99.912 C 20.34 97.957 19.485 95.849 18.943 93.652 L 18.858 93.482 Z  M 83.661 23.857 L 83.577 23.942 L 83.323 23.942 L 82.9 24.111 L 81.462 24.28 C 79.822 24.34 78.18 24.255 76.555 24.026 C 70.718 23.526 64.923 22.622 59.212 21.319 L 58.958 21.319 C 58.349 21.139 57.776 20.852 57.266 20.473 C 56.082 19.627 55.236 18.358 54.559 17.089 C 54.258 16.518 54.004 15.924 53.798 15.313 L 53.29 13.874 L 52.444 11.675 C 52.444 11.336 52.19 10.998 52.106 10.575 C 51.917 10.064 51.661 9.58 51.344 9.137 C 51.267 9.045 51.182 8.96 51.09 8.883 L 50.921 8.798 L 50.667 8.798 C 50.28 9.126 49.963 9.529 49.737 9.983 L 49.483 10.575 C 48.061 13.562 46.928 16.678 46.099 19.881 L 45.168 23.349 L 44.83 24.703 L 44.661 25.38 L 44.661 25.549 C 44.576 25.972 44.661 26.395 44.661 26.733 L 44.661 26.987 C 44.695 27.417 44.637 27.85 44.492 28.256 C 44.125 29.031 43.536 29.679 42.8 30.117 L 42.292 30.371 L 41.7 30.71 L 40.854 31.133 L 39.839 31.64 C 37.723 32.599 35.547 33.419 33.325 34.094 L 32.986 34.094 C 31.746 34.666 30.626 35.47 29.687 36.462 L 27.995 38.577 L 26.303 41.369 C 24.476 44.515 23.028 47.866 21.988 51.352 C 20.802 54.732 19.813 58.178 19.027 61.673 L 19.027 61.842 L 18.773 62.35 L 18.604 62.942 C 17.238 66.557 16.661 70.422 16.912 74.278 C 17.04 79.725 18.011 85.118 19.789 90.268 L 20.635 92.975 L 20.719 93.059 L 20.888 93.652 L 21.058 94.244 C 21.561 95.959 22.271 97.607 23.173 99.151 C 25.751 103.414 29.358 106.963 33.663 109.472 C 35.283 110.503 36.98 111.408 38.739 112.179 C 42.719 114.089 46.926 115.482 51.26 116.324 C 63.848 119.041 76.934 118.34 89.16 114.294 C 94.236 112.433 99.143 109.81 103.204 106.172 C 107.944 101.891 111.301 96.295 112.848 90.098 C 113.463 87.436 113.748 84.709 113.694 81.977 C 113.769 76.61 113.543 71.244 113.017 65.903 L 112.171 56.428 L 112.171 55.497 L 112.256 55.074 C 112.377 52.452 112.091 49.826 111.41 47.291 C 110.484 43.258 108.913 39.402 106.757 35.87 L 106.757 35.786 L 106.672 35.616 C 106.64 35.477 106.64 35.333 106.672 35.193 L 106.757 34.77 L 107.011 34.432 L 107.18 34.263 C 107.651 33.567 107.994 32.794 108.195 31.979 C 108.543 30.709 108.742 29.403 108.787 28.087 C 109.03 25.21 108.945 22.315 108.533 19.458 C 108.174 16.99 107.608 14.556 106.841 12.182 C 106.344 11.159 105.779 10.169 105.149 9.221 C 105.149 9.052 105.149 8.968 104.98 8.798 L 104.726 8.46 C 104.326 7.944 103.757 7.585 103.119 7.445 L 102.611 7.445 C 102.323 7.462 102.038 7.519 101.765 7.614 C 100.299 8.29 98.955 9.204 97.789 10.321 L 96.351 11.506 C 92.021 15.314 87.898 19.353 84 23.603 L 83.83 23.603 L 83.83 23.688 L 83.661 23.772 L 83.661 23.857 Z " fill="rgb(67,50,49)"/><path d=" M 84.423 27.156 C 84.423 27.156 90.429 15.82 101.173 10.49 C 112.002 5.245 104.303 43.061 104.303 43.061 C 104.303 43.061 102.019 46.868 96.689 42.046 C 91.444 37.139 85.099 31.386 84.423 27.156 Z " fill-rule="evenodd" fill="rgb(192,158,76)"/><path d=" M 93.052 34.77 C 93.052 34.77 94.575 26.649 97.874 23.772 C 101.258 21.065 98.72 32.063 98.551 32.232 C 98.381 32.232 97.705 36.124 93.052 34.77 Z  M 49.652 10.237 C 49.652 10.237 47.622 18.358 53.036 23.519 C 53.036 23.519 57.182 24.957 58.112 23.011 C 58.112 23.011 53.459 15.989 52.021 11.759 C 51.006 8.883 49.652 10.321 49.652 10.321 L 49.652 10.237 Z " fill-rule="evenodd" fill="rgb(183,147,60)"/><path d=" M 42.969 111.587 C 21.142 105.58 12.682 77.578 24.865 49.321 C 24.865 49.321 26.726 45.092 31.21 45.938 C 34.763 46.783 33.24 49.321 32.902 52.959 C 32.563 56.597 31.125 60.235 36.878 60.912 C 42.63 61.588 56.759 63.703 65.472 65.734 C 74.186 67.849 74.778 67.341 79.008 64.211 C 83.238 61.081 95.674 55.243 106.08 63.957 C 106.08 63.957 112.087 69.541 101.004 85.192 C 90.006 100.843 76.301 117.086 42.969 111.587 Z  M 78.501 54.059 C 78.501 54.059 77.824 51.098 73.425 47.122 C 69.195 43.146 70.379 42.892 70.379 42.892 C 70.379 42.892 67.333 35.786 62.342 42.638 C 59.043 47.037 61.75 50.421 61.919 51.098 C 62.258 52.198 62.088 55.497 62.088 55.497 C 62.088 55.497 58.789 61.673 64.288 62.265 C 69.787 62.942 80.108 60.404 78.585 54.059 L 78.501 54.059 Z  M 35.862 46.699 C 35.862 46.699 33.917 57.528 43.053 53.044 C 43.053 53.044 45.422 51.352 46.437 47.968 C 47.368 44.415 50.667 43.907 50.667 43.907 C 50.667 43.907 57.012 39.423 52.613 36.039 C 48.129 32.655 43.815 37.731 40.854 40.1 C 38.788 41.964 37.094 44.203 35.862 46.699 Z " fill-rule="evenodd" fill="rgb(216,196,132)"/><path d=" M 30.617 85.361 C 30.617 85.361 38.57 91.875 49.821 90.268 C 60.989 88.745 66.91 92.552 67.08 93.652 C 67.164 94.667 68.772 100.589 52.782 101.096 C 33.071 101.773 30.617 85.445 30.617 85.445 L 30.617 85.361 Z  M 28.164 77.662 C 27.741 79.1 26.641 80.454 23.765 79.862 C 23.765 79.862 17.504 67.003 27.064 49.152 C 27.064 49.152 32.732 43.823 31.633 52.79 C 30.533 61.758 29.602 62.096 31.04 62.35 C 32.479 62.773 34.932 61.673 35.947 62.35 C 36.793 62.857 43.815 66.411 45.422 68.526 C 47.03 70.641 47.114 73.771 46.353 79.523 C 45.507 85.192 56.082 85.445 56.082 85.445 C 56.082 85.445 33.832 90.437 29.602 81.554 C 28.977 80.315 28.495 79.01 28.164 77.662 Z  M 66.234 67.933 C 69.448 68.356 73.002 70.218 78.331 67.933 C 80.193 67.087 81.462 64.888 82.9 65.565 C 84.338 66.326 89.837 69.795 79.347 73.009 C 68.856 76.224 64.796 73.263 63.78 72.163 C 60.735 68.695 64.626 67.764 66.318 67.933 L 66.234 67.933 Z " fill-rule="evenodd" fill="rgb(201,182,123)"/><path d=" M 34.255 77.239 C 34.255 77.239 44.153 82.484 46.268 82.484 C 48.299 82.484 59.466 81.469 60.65 81.215 C 61.835 80.877 40.515 89.337 31.294 81.808 C 24.526 76.14 34.255 77.239 34.255 77.239 Z  M 49.652 71.317 L 50.498 71.571 C 52.35 71.972 54.162 72.539 55.913 73.263 C 59.635 74.786 63.188 76.647 66.657 78.677 L 65.472 78.085 C 61.03 75.778 56.35 73.962 51.513 72.671 L 50.329 72.417 L 49.483 72.248 L 49.398 72.248 L 49.06 71.656 L 49.568 71.317 L 49.652 71.317 Z  M 27.656 68.61 L 27.826 68.61 L 28.164 69.202 L 27.656 69.541 L 26.98 69.541 C 24.647 70.345 22.407 71.394 20.296 72.671 L 16.066 75.547 L 16.912 74.871 C 19.089 73.116 21.378 71.505 23.765 70.048 C 24.442 69.625 25.203 69.287 25.88 69.033 C 26.418 68.804 26.989 68.662 27.572 68.61 L 27.656 68.61 Z  M 28.079 67.68 L 28.249 67.68 L 28.672 68.187 L 28.164 68.61 L 27.91 68.61 C 27.151 68.533 26.385 68.533 25.626 68.61 L 22.496 69.118 C 19.45 69.625 16.574 70.471 13.613 71.317 L 14.628 70.894 C 18.063 69.722 21.566 68.762 25.118 68.018 C 25.964 67.849 26.81 67.68 27.656 67.68 L 27.995 67.68 L 28.079 67.68 Z  M 52.613 67.426 C 56.082 67.426 59.55 67.764 63.019 68.272 L 61.919 68.187 C 57.574 67.945 53.217 68.058 48.891 68.526 C 48.662 68.57 48.437 68.627 48.214 68.695 L 47.622 68.356 L 47.876 67.764 L 48.722 67.68 L 49.568 67.51 L 52.106 67.426 L 52.613 67.426 Z  M 62.173 62.773 L 61.073 62.857 C 56.773 63.437 52.529 64.37 48.383 65.649 L 47.706 65.903 L 47.03 65.734 L 47.199 65.142 C 48.855 64.567 50.552 64.114 52.275 63.788 L 54.39 63.45 C 56.928 63.111 59.55 62.857 62.173 62.688 L 62.173 62.773 Z  M 12.513 63.111 C 17.562 63.421 22.589 64.015 27.572 64.888 L 27.91 65.48 L 27.318 65.818 L 27.064 65.734 L 26.557 65.565 C 24.611 65.017 22.633 64.593 20.635 64.296 C 17.758 63.788 14.882 63.45 12.005 63.111 L 12.513 63.111 Z  M 15.474 54.313 C 19.209 56.728 22.823 59.326 26.303 62.096 L 27.318 62.942 L 28.079 63.703 L 28.079 64.38 L 27.403 64.38 C 27.403 64.211 27.233 64.126 27.233 64.126 C 25.883 62.653 24.411 61.294 22.834 60.066 C 20.465 58.035 18.012 56.174 15.474 54.313 Z " fill-rule="evenodd" fill="rgb(61,55,43)"/><path d=" M 29.095 78.085 C 29.687 77.239 31.463 77.155 32.732 77.155 L 34.17 77.155 C 34.17 77.155 40.431 80.539 44.069 81.892 C 38.901 81.462 33.84 80.175 29.095 78.085 Z  M 30.702 71.233 C 30.194 70.725 26.303 65.649 31.294 62.265 C 36.37 58.966 43.307 63.28 43.815 64.634 C 43.815 64.634 46.607 71.994 36.539 73.94 L 34.593 74.194 C 34.593 74.194 32.309 72.671 30.702 71.233 Z  M 62.596 55.328 C 62.596 55.328 62.765 51.944 68.856 49.744 C 73.594 47.968 78.416 54.397 78.416 54.397 C 78.416 54.397 75.032 60.319 69.11 59.22 C 63.104 58.12 62.596 55.328 62.596 55.328 Z  M 45.084 47.376 C 45.084 47.376 43.138 42.638 38.908 44.415 C 34.509 46.107 36.793 51.352 36.793 51.352 C 36.793 51.352 39.839 54.905 43.307 50.76 L 45.168 47.376 L 45.084 47.376 Z " fill-rule="evenodd" fill="rgb(0,0,0)"/><path d=" M 68.856 57.951 C 68.856 57.951 67.249 54.905 68.772 53.128 C 70.21 51.352 71.648 52.536 71.648 52.536 C 71.648 52.536 69.195 49.152 66.149 53.128 C 62.765 57.443 68.772 59.05 68.856 57.951 Z  M 38.739 51.352 C 38.739 51.352 36.624 47.883 39.162 47.122 C 39.162 47.122 39.839 46.699 40.515 47.122 C 41.108 47.545 41.023 45.43 39.331 45.684 C 37.639 46.022 35.186 49.406 38.739 51.352 Z  M 43.138 46.445 C 43.561 46.445 43.899 46.783 43.899 47.122 C 43.899 47.545 43.561 47.883 43.138 47.883 C 42.741 47.883 42.419 47.561 42.419 47.164 C 42.419 46.767 42.741 46.445 43.138 46.445 Z " fill-rule="evenodd" fill="rgb(255,255,255)"/></g></g></svg>
